<svg xmlns="http://www.w3.org/2000/svg" xmlns:v="https://svgstorm.com" viewBox = "0 0 5000 315" width="4990" height="315">

<!-- CHANGE FILL COLOR TO ALIGN TO YOUR NEW COLOR SCHEME -->
<g fill="white" fill-opacity="1.00" stroke="None">
<path d="
M 0.00 146.00 
L 0.00 315.00
L 5000.00 315.00
L 5000.00 149.00
C 4891.44 147.49 4776.92 151.48 4671.00 160.00 C 4565.08 168.52 4467.25 181.15 4363.00 193.00 C 4258.75 204.85 4158.44 216.14 4053.00 224.00 C 3947.56 231.86 3833.04 237.51 3726.00 238.00 C 3618.96 238.49 3507.83 229.75 3405.22 217.78 C 3302.61 205.80 3210.94 189.10 3111.07 170.93 C 3011.21 152.76 2922.42 132.15 2820.02 120.98 C 2717.63 109.80 2604.02 101.53 2498.00 102.00 C 2391.98 102.47 2279.54 110.67 2177.02 122.02 C 2074.51 133.38 1983.60 150.15 1884.02 170.02 C 1784.45 189.90 1694.18 207.34 1591.00 218.00 C 1487.82 228.66 1378.18 237.49 1271.00 239.00 C 1163.82 240.51 1045.94 236.44 941.00 228.00 C 836.06 219.56 739.23 205.91 636.00 192.00 C 532.77 178.08 435.68 165.09 330.01 156.99 C 224.34 148.89 109.24 142.97 0.00 146.00 Z"/>
</g>
</svg>