<svg xmlns="http://www.w3.org/2000/svg" width="1175" height="851">

<!-- CHANGE FILL COLOR TO ALIGN TO YOUR NEW COLOR SCHEME -->
<path fill="#525f8014" stroke="None" d="M0 483v159c7 43 28 77 72 91 44 13 96 17 146 
18s110 1 160 4 102 7 149 15 90 15 134 28 83 25 128 35 100 18 147 17c48-1 95-8 
133-31 38-22 59-48 77-87 19-39 25-90 29-135V461a419 419 0 0 0-172-317A694 694 
0 0 0 787 36 697 697 0 0 0 499 4c-46 6-96 14-139 24s-85 22-124 39-71 34-103 60c-32 
27-53 52-75 88-21 37-33 77-42 121C7 379 2 437 0 483Z"/>
</svg>